<svg width="38" height="39" viewBox="0 0 38 39" fill="none" xmlns="http://www.w3.org/2000/svg">
<path d="M8.36743 10.2259C8.36743 10.0511 8.43681 9.88346 8.56031 9.75985C8.68381 9.63625 8.8513 9.5668 9.02596 9.5668H11.0015C11.1484 9.56684 11.2911 9.61604 11.4068 9.70657C11.5226 9.7971 11.6047 9.92376 11.6403 10.0664L12.1737 12.2033H27.4646C27.5613 12.2033 27.6568 12.2247 27.7443 12.2659C27.8318 12.3071 27.9092 12.3671 27.9709 12.4416C28.0326 12.5161 28.0772 12.6033 28.1015 12.697C28.1257 12.7906 28.1291 12.8885 28.1113 12.9836L26.1357 23.5295C26.1075 23.6805 26.0274 23.8169 25.9093 23.9151C25.7912 24.0133 25.6426 24.0671 25.489 24.0673H13.6356C13.4821 24.0671 13.3334 24.0133 13.2154 23.9151C13.0973 23.8169 13.0172 23.6805 12.989 23.5295L11.0147 13.0034L10.4879 10.885H9.02596C8.8513 10.885 8.68381 10.8156 8.56031 10.692C8.43681 10.5684 8.36743 10.4007 8.36743 10.2259ZM12.4529 13.5215L14.1822 22.7491H24.9425L26.6718 13.5215H12.4529ZM14.9527 24.0673C14.2541 24.0673 13.5841 24.3451 13.0901 24.8395C12.5961 25.3339 12.3186 26.0045 12.3186 26.7037C12.3186 27.403 12.5961 28.0736 13.0901 28.568C13.5841 29.0624 14.2541 29.3402 14.9527 29.3402C15.6513 29.3402 16.3213 29.0624 16.8153 28.568C17.3092 28.0736 17.5868 27.403 17.5868 26.7037C17.5868 26.0045 17.3092 25.3339 16.8153 24.8395C16.3213 24.3451 15.6513 24.0673 14.9527 24.0673ZM24.172 24.0673C23.4734 24.0673 22.8034 24.3451 22.3094 24.8395C21.8154 25.3339 21.5379 26.0045 21.5379 26.7037C21.5379 27.403 21.8154 28.0736 22.3094 28.568C22.8034 29.0624 23.4734 29.3402 24.172 29.3402C24.8706 29.3402 25.5406 29.0624 26.0346 28.568C26.5286 28.0736 26.8061 27.403 26.8061 26.7037C26.8061 26.0045 26.5286 25.3339 26.0346 24.8395C25.5406 24.3451 24.8706 24.0673 24.172 24.0673ZM14.9527 25.3855C15.302 25.3855 15.637 25.5244 15.884 25.7716C16.131 26.0188 16.2697 26.3541 16.2697 26.7037C16.2697 27.0534 16.131 27.3887 15.884 27.6359C15.637 27.8831 15.302 28.022 14.9527 28.022C14.6034 28.022 14.2684 27.8831 14.0214 27.6359C13.7744 27.3887 13.6356 27.0534 13.6356 26.7037C13.6356 26.3541 13.7744 26.0188 14.0214 25.7716C14.2684 25.5244 14.6034 25.3855 14.9527 25.3855ZM24.172 25.3855C24.5213 25.3855 24.8563 25.5244 25.1033 25.7716C25.3503 26.0188 25.489 26.3541 25.489 26.7037C25.489 27.0534 25.3503 27.3887 25.1033 27.6359C24.8563 27.8831 24.5213 28.022 24.172 28.022C23.8227 28.022 23.4877 27.8831 23.2407 27.6359C22.9937 27.3887 22.855 27.0534 22.855 26.7037C22.855 26.3541 22.9937 26.0188 23.2407 25.7716C23.4877 25.5244 23.8227 25.3855 24.172 25.3855Z" fill="white"/>
<path d="M37.25 19.5C37.25 29.8738 29.061 38.25 19 38.25C8.93905 38.25 0.75 29.8738 0.75 19.5C0.75 9.12618 8.93905 0.75 19 0.75C29.061 0.75 37.25 9.12618 37.25 19.5Z" stroke="white" stroke-width="1.5"/>
</svg>
